<svg viewBox="0 0 192 192" xmlns="http://www.w3.org/2000/svg" xml:space="preserve" fill-rule="evenodd" clip-rule="evenodd" stroke-linejoin="round" stroke-miterlimit="2"><path d="M84 158.2c-3.9-.2-7.1-1.4-10.7-2.3-1.8-.5-3.6-1-5.3-1.7-8-3-15.9-5.8-23.5-8.5a68.2 68.2 0 0 0-11-3c-3.4-.6-8 .6-9.7 3.8-1.4 2.8-.7 5.5 2.2 8 .3.3.3.7.1 1l-.1.2a.4.4 0 0 1-.6 0c-4-2.6-5-5.9-3.1-9.8a8.4 8.4 0 0 1 4.2-4.1c2.4-1.1 4.5-1.6 6.3-1.3 2.9.3 5.8.6 8.6 1.4l22.6 5.9c10.6 2.7 21.5 5 32.6 4.3.3 0 .6-.2.8-.5a3 3 0 0 0 .6-2.3c0-.5-.3-.6-.7-.4l-.7.2a.9.9 0 0 1-1-.5c-.4-1-.7-2-.9-3.1a36 36 0 0 1 1.6-17.4 42.4 42.4 0 0 1 11.3-17.5c1.6-1.6 3-3.3 4.3-5.3l8.4-14.2c1.1-1.8 2.7-3 4.8-3.7 6.1-2 10.7-4.6 13.8-8 2.6-2.9 5-7 7.3-12.6 4-9.8 9-18.8 14.9-27a38 38 0 0 1 12.3-11.3c2.8-1.6 5.4-2 8-1.1a6 6 0 0 1 3.6 3c2.4 4.3.6 12.6-1 16.7a67 67 0 0 1-10.9 19.3c-5 6.4-9.3 12-12.9 17a24 24 0 0 0-5 11.4 49 49 0 0 0-.2 10.5c.2 1.2 0 5.7-1 7.5l-7.4 12.7c-1 1.6-1.7 3.4-2.4 5.5a43 43 0 0 1-23.5 25.6c-1.3.6-2.4.5-3.4-.1-.4-.3-.8-.3-1.1-.1l-4.7 1.8c-1.3.5-1.2.8.2.8h25.8c1.9 0 3.5-1.6 3.5-3.5V142c0-.3 0-.6.2-.8 2.2-3.6 3.9-7.5 5-11.6l.4-.2a.3.3 0 0 1 .4.2V153c0 3-.5 5.5-1.6 7.4-1.7 3-5 4.5-9.7 4.6h-117c-7.8 0-12.8-2.8-12.8-11.6l.1-116A10.1 10.1 0 0 1 15.7 27h120.4c2 0 3.9.4 5.4 1.1a9 9 0 0 1 4.7 5c.6 1.7.9 3.8.9 6.3V59a7 7 0 0 1-.8 3.2l-4.2 9.5c-.7 1.4-1 1.3-1-.3L141 44c0-.3-.2-.5-.5-.5H12.2s-.2.1-.2.3V82c0 .3.2.5.6.5h117.1c.4 0 .7.2 1 .6.1.4 0 .8-.4.9l-6.7 2.2c-2 .6-3.6 2.1-4.7 3.8-2.7 4.3-5.3 8.7-7.8 13.1-1 2-2.5 3.7-4.3 5.4A52.7 52.7 0 0 0 95.3 124c-.1.3-.4.5-.8.5h-82c-.3 0-.5.2-.5.4v29.7c0 2.5 1 3.9 2.8 4.2 1 .2 2.3.3 4.3.3 21.7-.2 43.5-.3 65.2-.3v-.3c0-.2 0-.3-.2-.3H84Zm-61.6-123c0-2-1.6-3.6-3.6-3.6S15 33.2 15 35.2s1.6 3.7 3.7 3.7c2 0 3.6-1.6 3.6-3.7h.1Zm10.5 0c0-2-1.7-3.7-3.7-3.7s-3.7 1.7-3.7 3.7 1.7 3.7 3.7 3.7 3.7-1.7 3.7-3.7Zm10.5 0c0-2-1.6-3.6-3.6-3.6S36 33.2 36 35.2s1.7 3.7 3.7 3.7 3.6-1.6 3.6-3.7h.1Zm126.8 12.9c1.8 1.1 4.9-.4 6.6-3.4 1.8-3 1.8-6.5-.1-7.6-2-1.1-5 .5-6.7 3.5-1.8 3-1.7 6.4.2 7.5ZM21 90c0-.8-.7-1.5-1.5-1.5S18 89.2 18 90v27c0 .8.7 1.5 1.5 1.5s1.5-.7 1.5-1.5V90Zm42 1.7v-.4c0-1.5-1.3-2.8-2.8-2.8H29.8a2.8 2.8 0 0 0-2.8 2.8v.4c0 1.5 1.3 2.8 2.8 2.8h30.4c1.5 0 2.8-1.2 2.8-2.8Zm21 0v-.4c0-1.5-1.3-2.8-2.8-2.8h-9.4a2.8 2.8 0 0 0-2.8 2.8v.4c0 1.5 1.3 2.8 2.8 2.8h9.4c1.5 0 2.8-1.3 2.8-2.8Zm66.8 22.5c.1-.2 0-.3 0-.4l-30.2-18.4h-.4l-3.2 5.3.1.4 30.2 18.4.3-.1 3.2-5.2ZM78 103.7v-.4c0-1.5-1.3-2.7-2.8-2.8H29.8a2.8 2.8 0 0 0-2.8 2.8v.3c0 1.6 1.3 2.8 2.8 2.8l45.4.1c1.5 0 2.8-1.2 2.8-2.8Zm68 18.7v-.2c0-.2 0-.4-.2-.5L116 103.5a.5.5 0 0 0-.7.2l-2.8 4.5v.3c0 .2 0 .3.2.4l29.9 18.3c.2.1.6 0 .7-.2l2.8-4.6h-.1Zm-48.9 19c1.3-5.9 3-10.8 5-14.9 1.8-3.5 5-8.1 9.7-13.7.3-.4.2-.6-.1-.8l-1.4-.7a.8.8 0 0 0-1 .1 42 42 0 0 0-13 23.9c-.3 2.2 0 4.6 0 7-.2 1 0 1 .5 0l.3-1v.1ZM42 115.7v-.4c0-1.5-1.3-2.8-2.8-2.8h-9.4a2.8 2.8 0 0 0-2.8 2.8v.4c0 1.5 1.3 2.8 2.8 2.8h9.4c1.5 0 2.8-1.3 2.8-2.8Zm59 26.4a8.2 8.2 0 0 0-.6 3.7c.2 2.2.6 2.2 1.2.1 2-6 4.3-12.1 7.3-18.2 2-4.1 4.1-8.3 6.5-12.6.3-.4.2-.7-.3-1l-1-.6c-.3-.2-.6-.2-.9.1-3 3.8-5.6 8-7.6 12.4-1.8 3.9-2.5 8.4-3.5 12.7-.3 1.1-.6 2.3-1.1 3.4Zm9.5-10.7c2.8-5 6-9.5 9.6-13.8.4-.4.3-.8-.1-1.1l-.3-.2a.4.4 0 0 0-.5 0 64.8 64.8 0 0 0-9 15.2h.3v-.1Zm16-7.9.8-1.2c.3-.4.2-.8-.2-1l-4.9-3.1c-.3-.3-.6-.2-1 .1-7.2 9.2-11 20.2-15.3 30.8-.2.4 0 .6.4.4 10.6-3.9 19-15.8 23.3-25.9.2-.5.1-1-.4-1.3l-.2-.2a.7.7 0 0 0-1 .2 5 5 0 0 1-1.3 1.5c-.6.5-.7.4-.3-.3h.1Zm11.7 6.8c-1.6 4.8-4.4 9-7.2 13.1-1.4 2.1-1.2 2.3.6.6 4.3-4 7.4-8.7 9.4-14.3 0-.3 0-.4-.2-.6l-8-4.3-.2-.1c-2.7 6-5.9 12-9.5 17.5a50 50 0 0 1-6.3 7.5c-.4.5-.4.6.3.4 4.7-1.4 8.3-3.5 10.9-6.2 3.9-4 7-8.7 9.7-13.8 1-2 1.2-2 .5.2Z" fill-rule="nonzero"/><path d="M78 61.3c0-1.5-1.3-2.8-2.8-2.8H29.8a2.8 2.8 0 0 0-2.8 2.8v.4c0 1.5 1.3 2.8 2.8 2.8h45.4c1.5 0 2.8-1.3 2.8-2.8v-.4Zm19.5.1c0-1.6-1.3-2.9-2.9-2.9H87a3 3 0 0 0-2.9 2.9v.3c0 1.5 1.3 2.8 2.9 2.8h7.7c1.6 0 2.9-1.3 2.9-2.9v-.3l-.1.1ZM54 73.3c0-1.5-1.3-2.8-2.8-2.8H29.8a2.8 2.8 0 0 0-2.8 2.8v.4c0 1.5 1.3 2.8 2.8 2.8h21.4c1.5 0 2.8-1.3 2.8-2.8v-.4Zm21 0c0-1.5-1.3-2.8-2.8-2.8h-9.4a2.8 2.8 0 0 0-2.8 2.8v.4c0 1.5 1.3 2.8 2.8 2.8h9.4c1.5 0 2.8-1.3 2.8-2.8v-.4Zm42 0c0-1.5-1.3-2.8-2.8-2.8H83.8a2.8 2.8 0 0 0-2.8 2.8v.4c0 1.5 1.3 2.8 2.8 2.8h30.4c1.5 0 2.8-1.3 2.8-2.8v-.4Z"/></svg>