<?xml version="1.0" standalone="no"?>
<!DOCTYPE svg PUBLIC "-//W3C//DTD SVG 20010904//EN"
 "http://www.w3.org/TR/2001/REC-SVG-20010904/DTD/svg10.dtd">
<svg version="1.0" xmlns="http://www.w3.org/2000/svg"
 width="700.000000pt" height="700.000000pt" viewBox="0 0 700.000000 700.000000"
 preserveAspectRatio="xMidYMid meet">
<metadata>
Created by potrace 1.14, written by Peter Selinger 2001-2017
</metadata>
<g transform="translate(0.000000,700.000000) scale(0.100000,-0.100000)"
fill="#000000" stroke="none">
<path d="M502 6004 c-142 -32 -259 -159 -277 -300 -4 -27 -7 -1025 -8 -2219
l-2 -2170 23 -72 c29 -93 81 -159 158 -200 32 -17 73 -34 89 -37 17 -4 41 -9
55 -12 39 -10 4417 -11 4489 -1 133 17 231 79 280 176 47 90 50 136 51 638 0
388 -2 473 -13 473 -8 0 -21 -25 -31 -57 -26 -85 -92 -236 -137 -315 l-39 -70
0 -263 c0 -145 -4 -275 -9 -288 -16 -41 -56 -74 -98 -79 -54 -8 -990 -4 -998
4 -3 3 42 25 102 48 103 40 109 41 153 29 61 -18 81 -14 185 38 375 188 638
493 790 918 39 111 26 86 201 387 79 135 150 262 158 282 22 54 27 100 25 231
-8 521 19 602 336 1010 13 17 79 102 146 190 68 88 157 205 200 260 236 308
389 629 444 935 12 63 13 195 3 250 -30 167 -167 258 -331 220 -140 -32 -374
-206 -511 -380 -84 -106 -306 -437 -306 -455 0 -3 -11 -22 -24 -43 -48 -76
-175 -333 -246 -497 -115 -267 -164 -359 -254 -475 -65 -84 -104 -120 -201
-184 -91 -61 -170 -99 -303 -147 -51 -18 -114 -49 -140 -69 -49 -37 -57 -49
-307 -470 -112 -188 -136 -221 -256 -345 -114 -118 -136 -144 -202 -243 -125
-187 -216 -411 -242 -597 -4 -27 -9 -59 -12 -70 -5 -25 -4 -241 1 -275 2 -14
7 -45 11 -69 8 -57 34 -121 49 -122 6 -1 23 0 37 1 33 2 40 -15 25 -60 -19
-58 -37 -62 -251 -56 -104 3 -203 7 -220 10 -16 3 -50 7 -75 10 -131 15 -334
53 -520 98 -69 16 -133 31 -143 33 -10 2 -52 14 -95 25 -42 12 -84 23 -92 25
-8 2 -87 22 -175 45 -605 159 -619 162 -791 176 -172 13 -330 -68 -393 -201
-55 -117 -32 -227 63 -310 28 -25 56 -45 63 -45 26 0 18 37 -18 77 -56 61 -77
109 -74 169 5 133 141 236 310 235 128 0 366 -73 990 -302 326 -119 665 -228
759 -243 20 -3 53 -10 73 -14 21 -5 50 -8 66 -8 16 1 27 -4 27 -11 0 -10 -118
-13 -597 -14 -329 0 -899 -1 -1268 -2 -750 -2 -714 -5 -750 69 -16 33 -17 84
-17 578 0 297 1 556 1 573 l1 33 1512 2 1512 3 53 94 c104 185 190 296 357
466 88 89 196 226 196 248 0 2 24 44 53 93 29 49 56 96 60 104 4 8 15 27 25
42 9 15 42 69 72 120 30 51 80 118 110 148 53 54 60 58 204 106 82 27 156 54
165 61 14 11 14 13 1 27 -14 14 -230 16 -2163 17 -1504 0 -2149 4 -2153 11 -9
14 -9 1396 0 1405 8 8 4674 11 4686 3 5 -3 10 -241 12 -529 2 -287 6 -525 9
-527 11 -7 32 34 118 229 45 104 86 210 89 235 4 26 7 227 6 447 -1 346 -4
410 -19 470 -34 135 -105 213 -232 256 l-68 23 -2248 1 c-1575 0 -2262 -3
-2295 -11z m252 -178 c57 -37 75 -111 41 -175 -60 -117 -245 -69 -245 64 0
101 120 166 204 111z m358 15 c70 -27 104 -111 71 -178 -50 -101 -173 -107
-234 -11 -63 101 50 232 163 189z m394 -7 c47 -22 77 -74 71 -122 -5 -46 -17
-69 -52 -102 -49 -46 -161 -24 -195 39 -39 73 -4 161 75 189 43 15 62 14 101
-4z m4928 -184 c49 -18 72 -99 51 -179 -34 -127 -123 -224 -217 -235 -141 -15
-154 211 -19 349 59 62 129 87 185 65z m-4196 -1889 c35 -15 64 -67 58 -103
-3 -12 -5 -28 -5 -35 -1 -15 -48 -63 -64 -64 -7 -1 -270 -2 -585 -3 -618 -2
-615 -2 -643 50 -36 69 2 151 77 163 20 3 283 6 585 5 413 -1 555 -4 577 -13z
m777 -5 c70 -46 56 -167 -22 -193 -16 -5 -112 -9 -214 -9 -158 1 -189 4 -212
19 -28 18 -54 62 -51 87 1 8 2 23 3 32 0 9 12 29 25 44 29 35 65 39 283 38
134 -1 168 -5 188 -18z m-2262 -8 c12 -19 14 -115 13 -531 -1 -491 -2 -509
-20 -523 -36 -26 -69 -15 -83 26 -5 14 -8 249 -7 522 1 384 4 501 14 513 19
23 67 19 83 -7z m3819 -333 c95 -58 182 -111 193 -118 10 -7 37 -23 60 -37 22
-13 87 -53 145 -88 58 -35 119 -72 136 -82 72 -42 380 -232 387 -239 8 -8 -96
-189 -117 -203 -6 -4 -17 -1 -26 6 -13 11 -121 78 -205 126 -16 10 -160 98
-320 195 -159 98 -350 214 -422 258 -73 44 -133 85 -133 90 0 17 110 197 120
197 5 0 87 -47 182 -105z m-1779 -98 c66 -43 67 -140 2 -183 -23 -15 -106 -16
-876 -15 -941 2 -897 -1 -924 66 -23 53 -3 114 45 137 22 11 192 13 877 13
791 0 851 -1 876 -18z m1923 -388 c264 -160 505 -308 537 -327 32 -19 62 -42
66 -50 13 -22 -96 -195 -118 -187 -9 3 -197 117 -419 253 -221 136 -417 256
-436 267 -165 99 -246 151 -246 158 0 5 10 26 22 46 69 113 91 142 102 138 8
-3 229 -137 492 -298z m-649 -11 c7 -6 13 -13 13 -17 0 -4 -41 -58 -91 -121
-235 -295 -341 -506 -429 -850 -17 -69 -36 -129 -41 -135 -5 -5 -9 24 -10 75
-1 47 -1 101 -2 120 -2 170 103 462 241 669 68 101 92 130 183 224 63 64 67
67 95 57 15 -6 34 -16 41 -22z m-2566 -56 c47 -52 37 -131 -21 -165 -24 -14
-59 -17 -218 -17 -105 0 -201 4 -215 9 -50 19 -75 92 -51 149 23 56 53 62 277
59 l199 -2 29 -33z m2684 -16 l30 -25 -28 -53 c-136 -253 -377 -761 -377 -794
0 -3 -6 -20 -14 -37 -8 -18 -36 -94 -62 -169 -25 -76 -50 -138 -54 -138 -31 0
-25 102 11 211 26 80 55 193 75 299 21 107 56 206 120 336 73 151 236 394 263
394 3 0 20 -11 36 -24z m194 -100 c9 -11 2 -26 -34 -72 -95 -123 -193 -263
-255 -361 -35 -57 -65 -101 -67 -99 -6 6 118 246 165 321 75 117 155 225 167
225 7 0 18 -6 24 -14z m119 -82 c130 -83 152 -98 152 -103 0 -4 -11 -23 -25
-44 -32 -47 -15 -49 22 -2 33 41 59 45 74 11 10 -21 3 -40 -50 -146 -139 -272
-265 -444 -456 -618 -114 -105 -355 -244 -355 -206 0 7 150 382 181 454 111
253 211 443 307 580 44 64 82 110 89 110 2 0 30 -16 61 -36z m431 -261 c47
-26 113 -62 146 -79 51 -28 60 -37 58 -58 -4 -57 -128 -285 -205 -376 -62 -72
-173 -180 -176 -171 -2 6 32 63 74 128 43 65 100 159 126 208 73 139 134 312
72 205 -144 -249 -238 -382 -350 -495 -77 -79 -129 -117 -224 -165 -69 -35
-200 -83 -200 -73 0 3 27 34 60 70 157 167 295 384 460 721 35 73 66 132 69
132 2 0 43 -21 90 -47z"/>
<path d="M1045 4856 c-38 -17 -60 -57 -58 -109 2 -33 9 -48 33 -69 l30 -28
866 0 866 0 29 29 c16 16 30 37 30 45 3 35 3 42 -5 71 -4 17 -19 39 -34 50
-26 20 -44 20 -877 22 -664 1 -857 -2 -880 -11z"/>
<path d="M3143 4863 c-37 -7 -73 -59 -73 -104 0 -96 30 -109 247 -109 185 0
199 4 228 61 21 40 11 90 -27 126 l-29 28 -162 1 c-89 0 -172 -1 -184 -3z"/>
<path d="M1029 4407 c-60 -40 -58 -140 4 -178 31 -18 50 -19 454 -17 l423 3
27 28 c23 23 28 36 28 78 0 45 -4 54 -33 80 l-32 29 -419 0 c-418 0 -418 0
-452 -23z"/>
<path d="M2240 4415 c-38 -20 -54 -56 -48 -109 6 -46 17 -64 55 -84 30 -16
393 -16 427 0 77 34 77 162 0 196 -38 18 -401 15 -434 -3z"/>
<path d="M3013 4420 c-75 -30 -77 -157 -3 -195 44 -23 1156 -23 1200 0 71 37
75 144 7 185 -31 19 -55 20 -607 19 -316 0 -585 -4 -597 -9z"/>
</g>
</svg>
