<svg viewBox="0 0 512 512" xmlns="http://www.w3.org/2000/svg" xml:space="preserve" fill-rule="evenodd" clip-rule="evenodd" stroke-linejoin="round" stroke-miterlimit="2"><path d="M400 109.4A29.5 29.5 0 0 0 370.6 80H53.4A29.5 29.5 0 0 0 24 109.4v309.2A29.5 29.5 0 0 0 53.4 448h317.2a29.5 29.5 0 0 0 29.4-29.4V109.4Z" fill="#292929" fill-opacity=".3"/><path d="M392 97.8A25.8 25.8 0 0 0 366.2 72H41.8A25.8 25.8 0 0 0 16 97.8v316.4A25.8 25.8 0 0 0 41.8 440h324.4a25.8 25.8 0 0 0 25.8-25.8V97.8Z" fill="url(#a)"/><clipPath id="b"><path d="M392 97.8A25.8 25.8 0 0 0 366.2 72H41.8A25.8 25.8 0 0 0 16 97.8v316.4A25.8 25.8 0 0 0 41.8 440h324.4a25.8 25.8 0 0 0 25.8-25.8V97.8Z"/></clipPath><g clip-path="url(#b)"><path fill="url(#c)" d="M8.6 64h390.7v52H8.6z"/><circle cx="50" cy="94" r="10" fill="#363152" fill-opacity=".6"/><circle cx="78" cy="94" r="10" fill="#363152" fill-opacity=".6"/><circle cx="106" cy="94" r="10" fill="#363152" fill-opacity=".6"/></g><path fill="url(#d)" d="M16 220h376v112H16z"/><g fill="#fff"><path d="M208 274.4c0-3.5-2.9-6.4-6.4-6.4H78.4a6.4 6.4 0 0 0-6.4 6.4v3.2c0 3.5 2.9 6.4 6.4 6.4h123.2c3.5 0 6.4-2.9 6.4-6.4v-3.2Zm-40-32c0-3.5-2.9-6.4-6.4-6.4H78.4a6.4 6.4 0 0 0-6.4 6.4v3.2c0 3.5 2.9 6.4 6.4 6.4h83.2c3.5 0 6.4-2.9 6.4-6.4v-3.2Zm-56 64c0-3.5-2.9-6.4-6.4-6.4H78.4a6.4 6.4 0 0 0-6.4 6.4v3.2c0 3.5 2.9 6.4 6.4 6.4h27.2c3.5 0 6.4-2.9 6.4-6.4v-3.2Zm112-64c0-3.5-2.9-6.4-6.4-6.4h-27.2a6.4 6.4 0 0 0-6.4 6.4v3.2c0 3.5 2.9 6.4 6.4 6.4h27.2c3.5 0 6.4-2.9 6.4-6.4v-3.2Z" fill-opacity=".8"/><path d="M208 162.4c0-3.5-2.9-6.4-6.4-6.4H78.4a6.4 6.4 0 0 0-6.4 6.4v3.2c0 3.5 2.9 6.4 6.4 6.4h123.2c3.5 0 6.4-2.9 6.4-6.4v-3.2Zm-64 32c0-3.5-2.9-6.4-6.4-6.4H78.4a6.4 6.4 0 0 0-6.4 6.4v3.2c0 3.5 2.9 6.4 6.4 6.4h59.2c3.5 0 6.4-2.9 6.4-6.4v-3.2Zm56 0c0-3.5-2.9-6.4-6.4-6.4h-27.2a6.4 6.4 0 0 0-6.4 6.4v3.2c0 3.5 2.9 6.4 6.4 6.4h27.2c3.5 0 6.4-2.9 6.4-6.4v-3.2Zm60-32c0-3.5-2.9-6.4-6.4-6.4h-23.2a6.4 6.4 0 0 0-6.4 6.4v3.2c0 3.5 2.9 6.4 6.4 6.4h23.2c3.5 0 6.4-2.9 6.4-6.4v-3.2Zm52 32c0-3.5-2.9-6.4-6.4-6.4h-83.2a6.4 6.4 0 0 0-6.4 6.4v3.2c0 3.5 2.9 6.4 6.4 6.4h83.2c3.5 0 6.4-2.9 6.4-6.4v-3.2Z" fill-opacity=".6"/></g><path d="M52.8 316c1.8 0 3.2-1.4 3.2-3.2v-73.6c0-1.8-1.4-3.2-3.2-3.2h-1.6a3.2 3.2 0 0 0-3.2 3.2v73.6c0 1.8 1.4 3.2 3.2 3.2h1.6Z" fill="#89ff94"/><path d="M68.3 412.7A16.4 16.4 0 0 1 62 390c3.5-6.6 11.2-11.8 22.1-12 10.3 0 28.6 5.6 50.2 13.6 23 8.6 49.5 20 75 26.8 12 3.2 23.8 5.7 34.8 6.3 8.9.5 17.2-.4 24.8-2a66.2 66.2 0 0 0 30.5-19.2c9.1-10 15.9-23.3 25-38.5a440 440 0 0 1 16.2-24.7.6.6 0 0 0-1-.8c-5.8 7-10.8 13.8-16 19.9-9 10.8-17.6 19.7-26 27.3a56.7 56.7 0 0 1-33 16 109 109 0 0 1-26.9 1.1 333 333 0 0 1-43.4-4.5 766.6 766.6 0 0 1-54.8-11.7c-24.3-6.1-44.5-12-55.4-11.3-11.6.4-19.6 6-23.3 13a17.7 17.7 0 0 0 7 24.4.6.6 0 1 0 .6-1.1Z" fill="url(#e)"/><path d="M67.8 414c-7.5-2.3-12-13-8.5-22.7 2.4-6.6 8.8-12.7 20.8-15 5-1 16.7 1 31.8 4.6 9.4 2.2 20.2 5 31.4 8.3 20.9 5.9 43.3 12.7 63.4 16.8a178 178 0 0 0 34 4c8.4-.3 15.4-2.1 21.2-5.6 6.3-3.7 11.4-9 15.2-15.6 8.1-14.4 9.5-34.7 15.2-57.6a195.1 195.1 0 0 1 7.8-23.3h-.2c-4.7 8.7-8.2 17.4-12 25.5a306.3 306.3 0 0 1-19.9 36.4 52 52 0 0 1-13.1 14 29.7 29.7 0 0 1-15.7 6.1c-16 2.6-39 1.5-62.7-1.2a915.3 915.3 0 0 1-48.2-6.7c-23.2-4-41.8-7.7-48.4-6.3-12 2.5-18.5 8.7-21 15.5-3.6 9.8 1.1 20.7 8.8 23.1a.2.2 0 1 0 .1-.3Z" fill="url(#f)"/><path d="M299.9 299.7s5.6-7.6 29.5-48.7c2.3-4 6.1-7 10.5-8.4 12.4-4 35.7-13.3 46.4-32.3 12-21.2 23.4-55.2 48.4-91.7 8.7-13 37.8-46.3 58.2-37 20.3 9.4 9 50.3-4.6 74.4-20 35.5-51.8 65.6-62.6 88.8a75.6 75.6 0 0 0-3.8 47.1c1 4.7.3 9.6-2.2 13.7a1890 1890 0 0 1-29 49.5l-90.8-55.4Zm162.9-186.8c3.5-4.4 10.7-10.5 17.2-6.5 6 3.8 3.6 12.3 1.5 17.8-2.6 6.8-10.7 17.5-20 12.5-8.9-4.8-3.5-17.8 1.3-23.8Z" fill="#371b01" fill-opacity=".3"/><path d="m295.6 298.7 2.7 1.7c.9.2 1.8.7 2.8 1.4.5.4.6 1 .2 1.5-2 2.6-4 5.3-6.1 7.7-3 3.2-5.5 7-8.2 10.5-2.6 3.3-5 6.7-7 10.1-2.5 4.5-5.9 8.7-7.2 13.7-.4 1.3-.9 2.5-1.2 3.8-.3 1-.8 1.9-1.3 2.8-.8 1.6-1.3 3.2-2 4.8l-.9 2.7a147 147 0 0 0-3.8 14.8 25 25 0 0 1-1.9 6.4c-.3.8-.6 1.6-.7 2.3l-.2 2.3c0 .8-.4 1.3-1 1.4l1.3 8.3c.2 1 .4 1 .6 0 .5-3 1-6.3 1.7-9.7a159 159 0 0 1 3.5-14c1.2-4.1 3.2-8 5-11.8a15 15 0 0 1 2.2-3.7c.7-.9 1.5-1 2.5-.6.2.1.2.3.2.5l-2 8c-.7 2.4-1 5-1.5 7.4a54 54 0 0 0-1.2 8 4.1 4.1 0 0 0 1.3.8v-.4l.2-.1c.1 0 .2-.1.2-.3.8-3.3 1.9-6.5 2.4-10a134.2 134.2 0 0 1 11.6-37.7c.7-.5.8-1.6 1.3-2.3a203.8 203.8 0 0 1 12.2-18.5 46 46 0 0 0 3.6-5.4c.1-.2.4-.3.7-.3.8.3 1.7.8 2.7 1.6l2.7 1.5c.2.2.3.4.2.6l-1.6 3.4-3.8 7.3c-.6 1.4-1.4 2.7-2.1 4l-7.7 14.2-2.9 5.6a427 427 0 0 0-3.5 8.3c-.7 1.6-1 3.3-2 4.8-.9 1.7-1.7 3.5-2.4 5.2l-3.7 8.9c-.8 2-1.8 3.7-2.4 5.8a123.8 123.8 0 0 0-3.8 11.2c-.5 1.2-.8 2.5-.9 3.8 0 .2 0 .3-.2.5l-.3.8-.1.5-1.8 3a.6.6 0 0 1-.8.2c-.6-.5-.7-1-.4-1.7l.1-.5-.2-1c-.7 6-1.6 11.3-2.5 15.8-1.3 6.9-4 13.3-7.9 19.4v.6c0 .2.1.3.3.3 3-.5 5.6-1.3 7.8-2.4 4.3-2.3 8.8-4.1 11.8-6a187.2 187.2 0 0 0 43-38.9c1.3-1.6 2.7-3 4-4.7a195.2 195.2 0 0 0 16-25.5 382.3 382.3 0 0 0 8-18.1c.3-1 0-2.4.7-3.3.4-.5.7-.9.7-1.1-3-1.8-6.1-3.5-9.1-5.4-6.3-4-11.9-7.4-16.8-10.3a131 131 0 0 1-8.1-5l-19.7-12.1a.3.3 0 0 0-.4 0l-2.9 2.6Zm29 17 2.1 1.6.3.1c.4 0 .6-.1.8-.4a.6.6 0 0 1 1-.2l2 1.4c.5.3.9.7 1 1.2l.4.5c1.4 1.4 3.3 2.3 5 3.4 1.7 1.2 3.7 2.1 5.5 3.4.2.2.3.5.1.8a41.7 41.7 0 0 0-3.4 7.2c0 .5 0 .6.5.3a6 6 0 0 0 1.3-1.8c1-1.9 2-3 3-4.9.2-.5.6-.6 1-.3l3.6 2.3c.2.2.3.5.3.8a96.4 96.4 0 0 1-7 15.2l-5.5 9a153.1 153.1 0 0 1-21.8 27.9 79.5 79.5 0 0 1-19.4 15 30 30 0 0 1-9.8 3.6.4.4 0 0 1-.5-.6 145 145 0 0 1 5.2-13c.3-1.2 1-2.3 1.5-3.5v-.6l.2-.3.4-.4 2-5.6 5-12.6 3.2-7a5 5 0 0 1 1-3.1l.1-.6c0-.5.2-1 .5-1.3.2-.1.2-.3.2-.4 0-.6.2-1 .5-1.5.8-1.4.6-2.8-.6-4-.3-.4-.7-.5-1.1-.5-.5 0-.8.1-1 .5 0 .2-.2.3-.3.3-.2.2-.4.4-.4.7l-.1.3-3 3.8-2.2 3.2-.2.1h-.2v-.2a25.9 25.9 0 0 0 2-4.4 195.6 195.6 0 0 0 3.3-7.1l2.3-4.7 2.5-4.6c4.7-7.7 9.8-15.1 15.4-22.3.2-.3.3-.3.5 0 .2.1.3.4.2.6 0 .5 0 .8.3 1.2.3.4 1 .9 2.3 1.4Zm-29-17-8 8.4a111 111 0 0 0-24.4 42.3 7 7 0 0 0 1.8-2c.3-.5.6-1 1-1.2a112.2 112.2 0 0 1 1.5-1.2c.2-.5.5-.8.9-1l.4-.4c1-1.7 1.5-3.6 2.4-5.4 3.5-6.6 7.2-12.7 11.3-18.5 1.7-2.4 3.7-4.6 5.5-7a447.4 447.4 0 0 0 10.3-12.4l-2.7-1.6Zm2.7 1.7a447.4 447.4 0 0 1-10.3 12.4c-1.8 2.3-3.8 4.5-5.5 7-4 5.7-7.8 11.8-11.3 18.4-1 1.8-1.4 3.7-2.4 5.4l-.4.4c-.4.2-.7.5-1 1a112.2 112.2 0 0 0-1.5 1.3l-1 1.1a7 7 0 0 1-1.7 2 71.5 71.5 0 0 0-3.8 19.8c-.3 5.6-.1 11.4.5 17.4.5-.1.8-.6.9-1.4 0-.8 0-1.6.2-2.3.1-.7.4-1.5.7-2.3a25 25 0 0 0 1.9-6.4 147 147 0 0 1 4.8-17.5c.6-1.6 1-3.2 1.9-4.8.5-1 1-1.7 1.3-2.8.3-1.3.8-2.5 1.2-3.8 1.3-5 4.7-9.2 7.3-13.7 2-3.4 4.3-6.8 6.9-10 2.7-3.5 5.2-7.4 8.2-10.6 2.2-2.4 4.1-5.1 6.1-7.7.4-.5.3-1.1-.2-1.4-1-.8-2-1.3-2.8-1.5ZM289 329l-.4 1.5v.2c0 .2.2.4.5.4h.1l.5-.5 2-2.5 3.2-4c3-4.2 6.2-8.3 9.7-12.2 1.5-1.7 2.7-3.5 3.6-5.5-1-.8-2-1.3-2.7-1.6-.3 0-.6 0-.7.3a43.9 43.9 0 0 1-3.6 5.4L298 315c-3.2 4.5-6.1 9.2-8.9 14Zm19.2-22.6c-1 2-2.1 3.8-3.6 5.5-3.5 4-6.7 8-9.7 12.2l-3.2 4a89.7 89.7 0 0 1-2.6 3 .4.4 0 0 1-.5-.6l.4-1.5c-.6.7-.6 1.8-1.3 2.3l-.3.4a134.2 134.2 0 0 0-11.2 37.4c-.6 3.4-1.7 6.6-2.5 10l-.2.2h-.2v.5c-.4-.1-.8-.4-1.3-.8l-1.4 13.8.2 1v.5c-.4.7-.3 1.2.3 1.7a.6.6 0 0 0 .8-.1l1.8-3.1.1-.5c0-.3.2-.6.3-.8l.2-.5c.1-1.3.4-2.6.9-3.8a1027.6 1027.6 0 0 0 2.6-7.3 56 56 0 0 0 1.2-4c.6-2 1.6-3.7 2.4-5.7 1.2-3 2.5-5.8 3.7-9 .7-1.6 1.5-3.4 2.5-5.1.8-1.5 1.2-3.2 1.9-4.8a427 427 0 0 1 3.5-8.3c.8-2 2-3.7 3-5.6a465.7 465.7 0 0 1 9.7-18.2l3.8-7.3 1.6-3.4c.1-.2 0-.4-.2-.6l-2.7-1.5Zm-10 46a1074.6 1074.6 0 0 1 10.9-17.8c1.7-2.6 4.3-6 8-10.1.8-1 1.4-2.1 2.1-3.2l2-2.1c1.2-1 2.3-2.2 3.3-3.6-1.3-.5-2-1-2.3-1.4-.3-.4-.3-.7-.3-1.2 0-.2 0-.5-.2-.7-.2-.2-.3-.2-.5 0a238.4 238.4 0 0 0-17.9 27 168 168 0 0 1-4 8.1 195.6 195.6 0 0 1-3.6 8.2l.2.1h.2l2.2-3.3Zm26.3-36.8c-1 1.4-2 2.6-3.2 3.6-1 .8-1.6 1.5-2 2.1-.8 1-1.4 2.2-2.3 3.2a97.5 97.5 0 0 0-7.9 10l-9.6 15.4c-.5.7-.9 1.6-1.2 2.5l3-3.8.1-.3c0-.3.2-.5.4-.7.2 0 .3-.2.3-.3.2-.4.5-.5 1-.5.4 0 .8.1 1 .4 1.3 1.3 1.5 2.7.7 4-.3.5-.4 1-.5 1.6 0 .1 0 .3-.2.4-.3.3-.4.8-.5 1.3 0 .2 0 .4-.2.6-.6 1-1 2-.9 3.2A129.5 129.5 0 0 0 308 347a74.5 74.5 0 0 0 2.4-4.7 139 139 0 0 1 9.6-15.6c2.1-3 4.6-5.8 6.9-8.8.2-.3.7-.4 1-.2l3.1 1.9c.4.2.4.5.1.8-5.3 5.7-10 11.9-14.4 18.5l-6 9c-2.7 4.4-4.7 9.2-7.2 13.7-2.8 5-4.7 9.8-7.2 14.7 0 .3-.3.5-.5.7-.2.2-.3.5-.4.9l-.2.5c-.2.3-.3.2-.4 0 0-.5-.2-.7-.4-.7l-2 5.6-.4.4-.1.3v.6c-.6 1.2-1.3 2.3-1.6 3.5l-.6 1.7a145 145 0 0 0-4.6 11.6c0 .2.3.3.5.3a30 30 0 0 0 9.8-3.6c3.6-2 6.6-4 9.2-6 3.5-2.7 7.3-5.6 10.2-9 2-2.4 4-4.7 6.1-6.9a153.1 153.1 0 0 0 21.1-30 96.4 96.4 0 0 0 7-15.2c.1-.3 0-.6-.2-.8l-3.5-2.3c-.5-.3-.9-.2-1.2.3-1 1.8-2 3-2.9 4.9a6 6 0 0 1-1.3 1.8c-.4.3-.6.2-.5-.3l.3-1.3c.9-2 2-4 3.1-6 .2-.2.1-.5-.1-.7-1.8-1.3-3.8-2.2-5.6-3.4-1.6-1.1-3.5-2-4.9-3.4l-.3-.5c-.2-.5-.6-1-1.1-1.2l-2-1.4a.6.6 0 0 0-1 .2c-.2.3-.4.5-.8.4l-.3-.1-2.1-1.7Zm-22 42.7a83.8 83.8 0 0 0-3.2 7l-5 12.5c.2 0 .3.2.4.6 0 .3.2.4.4.1l.2-.5c0-.4.2-.7.4-.9l.5-.7c2.5-4.9 4.4-9.8 7.2-14.7 2.5-4.5 4.5-9.3 7.3-13.6l5.9-9.1c4.3-6.6 9.1-12.8 14.4-18.5.3-.3.3-.6 0-.8l-3.1-1.9a.8.8 0 0 0-1.1.2c-2.3 3-4.8 5.8-6.9 8.8a134.1 134.1 0 0 0-13.4 23 93.7 93.7 0 0 1-4 8.5Zm50-29.4c0 .2-.3.6-.7 1.1-.7.9-.4 2.2-.8 3.3a382.3 382.3 0 0 1-8 18.1 146.4 146.4 0 0 1-16 25.5c-1.2 1.7-2.6 3.1-3.9 4.8a187.2 187.2 0 0 1-43 38.8c-3 1.9-7.5 3.7-11.8 6-2.2 1.1-4.8 2-7.8 2.4-.2 0-.3 0-.3-.3v-.6l-1 1.8-.1.1a.4.4 0 0 0 .3.6c6.2.6 12.4-1 18.3-2.2 3.2-.7 6.3-1.6 9.3-2.7 7.6-2.8 15.1-6.1 22.6-9.9 4.5-2.3 8.9-5 13-8 1-.8 2.2-1.3 3-2.1 1-.8 2.2-1.2 3.2-1.8.5-.2 1-.1 1.6-.2a.5.5 0 0 1 .5.8 52 52 0 0 1-11 12.5c-.4.3-.4.4.2.2a102.6 102.6 0 0 0 46.8-36.3 119 119 0 0 0 17-32.7c0-.2 0-.5-.3-.7l-20.3-12.1c1.4 1.5.5 3 1.4 4.6.5.2 1 .5 1.3 1h.4c.1-.1.3 0 .4 0a16 16 0 0 0 5 2.6c.2 0 .4.1.5.3.4.6 1 .8 1.5 1.2 1.3 1.2 3 2 4.7 2.6.7.2 1 .6.6 1.2a101.6 101.6 0 0 1-16.7 29.5 67.4 67.4 0 0 1-14 13.2c-.8.6-1 .5-.2-.4 2.4-2.8 4.3-5.5 6.5-9.1l3.8-5.8a68 68 0 0 0 5-8.3 479.2 479.2 0 0 0 5.6-11.5l.7-1.7 1-2.1c.8-2 1.1-4 1.9-6 .2-.5.2-1 .2-1.6 0-.3-.1-.4-.4-.1 0 .1-.1.2 0 .4l-.2.4a95.3 95.3 0 0 1-9.8 18.4 6 6 0 0 1-1.7 1.6 7.6 7.6 0 0 0-2.8 2.7l-4.5 8a103.3 103.3 0 0 1-11.5 15c-2.8 2.9-5.7 5.6-8.7 8.1l-3 2.8c-.1.2-.3.3-.5.3h-1.2c-.3 0-.5 0-.6-.4l-.3-.3-1.3-.5-1-1c-.5-.8-1.1-1.2-1.8-1.1a77.1 77.1 0 0 1-10.5 5.4 206.9 206.9 0 0 0 18-22c3.3-5.2 7-11.6 11.2-19.1 2-3.6 4.2-8.4 6.5-12.6a112 112 0 0 0 6.2-14c0-.8 0-1.6.5-2.3 0-.2.2-.3.4-.2h.5c.2.1.4 0 .5-.2l.8-2.4-5-3Zm5.1 3-.8 2.4c-.1.3-.3.3-.5.3l-.5-.1c-.2 0-.3 0-.4.2-.4.7-.6 1.5-.5 2.3l.6-1a1.1 1.1 0 0 1 1.6-.4l1.4 1 6.2 3.3c-1-1.5 0-3.1-1.4-4.6l-5.7-3.4ZM355 337a112 112 0 0 1-6.2 14c-2.3 4.2-4.5 9-6.5 12.6a287 287 0 0 1-11.3 19.1c-.5.9-1.9 2.7-4 5.5 0 .5.4.6 1 .5.3 0 .5-.2.7-.4 1.8-1.8 3.4-3.7 4.6-5.7l3-4.6 5.3-7.5c.8-1.2 1.6-2.5 2.2-4a55.1 55.1 0 0 1 3.4-6.2l.7-1.5c3-6.6 6.4-13 10.2-19.1a4 4 0 0 0 .5-3.2l-1.4-.9c-.6-.3-1.3-.2-1.6.4l-.6 1Zm3.6-.5a4 4 0 0 1-.5 3.2 207.5 207.5 0 0 0-11.6 22c-1 1.7-2 3.3-2.7 4.9-.6 1.4-1.4 2.7-2.2 3.9a955.8 955.8 0 0 1-8.3 12 28 28 0 0 1-4.6 5.8l-.7.4c-.6.1-1 0-1-.5a206.9 206.9 0 0 1-13.8 16.6 77.1 77.1 0 0 0 13.2-7.6c2.8-2 5.4-4.4 8-6.7a41 41 0 0 0 4.7-4.6 103.7 103.7 0 0 0 20.2-30.4 49 49 0 0 1 1.7-3.2 29.6 29.6 0 0 0 2.2-4.8l.2-.3.6-1.5c.8-1.4 1.2-3 1.3-4.5 0-.5-.3-1-.5-1.3l-6.2-3.4Zm6.2 3.4c.2.4.6.8.5 1.3 0 1.6-.5 3-1.3 4.5a9 9 0 0 0-.6 1.5l-.2.3-.3.4c-.6 1.7-1.2 3.1-1.9 4.4a117.2 117.2 0 0 1-26.5 38.2c-2.7 2.3-5.3 4.7-8.1 6.7l-2.8 2.1c.7 0 1.3.3 1.9 1.2l.9.9 1.3.5.3.3c0 .3.3.5.6.5l1.2-.1c.2 0 .4-.1.5-.3l3-2.8c3-2.5 6-5.2 8.7-8a103.3 103.3 0 0 0 16-23c.5-1 1.4-2 2.8-2.8a6 6 0 0 0 1.7-1.6 95.3 95.3 0 0 0 10-19.2c.3-.3.4-.2.4.1 0 .6 0 1-.2 1.6-.8 2-1.1 4-2 6a45.1 45.1 0 0 0-1.6 3.8l-.5 1.2-.5 1.2-4.5 9a68 68 0 0 1-5.1 8.4 96.3 96.3 0 0 0-3.8 5.8 76.6 76.6 0 0 1-6.5 9.1c-.7.9-.6 1 .3.4a67.4 67.4 0 0 0 13.9-13.2 101.6 101.6 0 0 0 16.7-29.5c.3-.6.1-1-.6-1.2a12 12 0 0 1-4.7-2.6c-.5-.4-1-.6-1.4-1.2a1 1 0 0 0-.6-.3 16 16 0 0 1-5-2.6.5.5 0 0 0-.4 0h-.2c-.4-.5-.9-.8-1.4-1Z" fill="#292929" fill-opacity=".6" fill-rule="nonzero"/><g fill-rule="nonzero"><path d="M295.5 293S272 314.7 264 336c-5.6 15-9 24.8-7 47.6l1.2 8.2c.2 1.1.3 1.1.5 0l1.8-9.6c.8-4.9 2.2-9.4 3.5-14 1.1-4.2 3-8 4.9-11.9.6-1.3 1.4-2.5 2.2-3.7.7-.8 1.5-1 2.5-.5.2 0 .3.2.2.4l-2 8c-.7 2.5-1 5-1.4 7.4a54.1 54.1 0 0 0-1.3 8c.5.5-1.3 13.8-1.3 13.8a241 241 0 0 1-2.5 15.8c-1.4 7-4 13.4-8 19.4v.7c0 .2.2.3.4.2 3-.4 5.6-1.2 7.7-2.4 4.4-2.3 8.9-4 11.9-6a187.2 187.2 0 0 0 43-38.8l3.9-4.7c3.8-5.4 7-9.9 9.2-13.5 3-5 5.4-9 6.8-12a379.1 379.1 0 0 0 8-18.2c.3-1 0-2.3.7-3.2l.8-1.2c-3-1.8-6.2-3.5-9.2-5.4-6.2-4-11.8-7.4-16.8-10.3-3-1.7-5.6-3.3-8-4.9L295.8 293h-.4Z" fill="url(#g)"/><path d="M349.7 325.8c0 .3-.3.6-.8 1.2-.7.9-.3 2.2-.7 3.2l-1.6 4.1a298 298 0 0 1-6.4 14c-1.4 3.1-3.7 7.1-6.8 12-2.3 3.7-5.4 8.2-9.2 13.6-1.3 1.6-2.7 3-4 4.7a187.2 187.2 0 0 1-43 38.8c-3 2-7.4 3.7-11.8 6-2.1 1.2-4.7 2-7.7 2.4-.2 0-.3 0-.3-.2v-.7l-1.1 1.9a.4.4 0 0 0 .3.6c6.1.6 12.3-.9 18.3-2.2 3.1-.6 6.2-1.5 9.3-2.7 7.6-2.8 15-6 22.5-9.8 4.5-2.3 8.9-5 13.1-8.1 1-.7 2.2-1.3 3-2 .9-.8 2-1.3 3.1-1.8.6-.3 1-.2 1.7-.3a.5.5 0 0 1 .5.8 52 52 0 0 1-11 12.5 102.6 102.6 0 0 0 47-36c7.3-9.6 12.8-21.1 16.9-32.7.1-.3 0-.6-.3-.7l-31-18.6Z" fill="url(#h)"/><path d="m292.7 295.7-8 8.4c-11 12-19.9 26.7-24.5 42.3a7 7 0 0 0 1.8-2c.3-.6.7-1 1-1.2a91 91 0 0 1 1.5-1.3c.2-.4.5-.7 1-1l.3-.4c1-1.7 1.5-3.6 2.4-5.4 3.5-6.5 7.3-12.7 11.3-18.4l5.5-7 4-5 6.3-7.4-2.6-1.6Z" fill="#fef8fe" fill-opacity=".9"/><path d="m286.2 326-.5 1.5v.1a.4.4 0 0 0 .6.4 91.3 91.3 0 0 0 2.5-3l3.3-4c3-4.2 6.2-8.2 9.6-12.1a28 28 0 0 0 3.7-5.5c-1-.8-2-1.4-2.8-1.6-.3 0-.6 0-.7.3a43.8 43.8 0 0 1-3.6 5.4l-3.3 4.4c-3.1 4.6-6 9.3-8.8 14Z" fill="#fff" fill-opacity=".7"/><path d="M295.4 349.3c.3-.9.7-1.7 1.2-2.5l9.7-15.3c1.7-2.6 4.3-6 7.9-10 .8-1 1.4-2.2 2.1-3.2a14 14 0 0 1 2.1-2.2 18 18 0 0 0 3.2-3.5c-1.2-.6-2-1-2.3-1.5-.2-.3-.3-.7-.2-1.1 0-.3 0-.5-.2-.7-.2-.2-.4-.2-.6 0a238.4 238.4 0 0 0-17.8 27 172.3 172.3 0 0 1-4 8.1 198.7 198.7 0 0 1-3.6 8.2h.4l2.1-3.3Z" fill="#fff" fill-opacity=".6"/><path d="M299.6 355.2a83.6 83.6 0 0 0-3.2 7l-5 12.6c.2 0 .4.2.5.6 0 .3.1.3.3 0l.2-.5c0-.3.2-.6.5-.8l.5-.8c2.4-4.8 4.3-9.7 7.1-14.6 2.6-4.6 4.6-9.3 7.3-13.7l6-9a144 144 0 0 1 14.4-18.6c.3-.3.2-.6-.1-.8l-3-1.8a.8.8 0 0 0-1.2.2c-2.2 3-4.7 5.7-6.9 8.7a133.9 133.9 0 0 0-13.3 23.1l-4 8.4ZM352 334c-2.5 6.5-4.6 11.2-6.1 14-2.3 4.1-4.6 8.9-6.6 12.6-4.1 7.4-7.9 13.8-11.3 19.1l-4 5.5c.1.4.4.6 1 .5l.7-.4a25 25 0 0 0 4.6-5.8l3-4.5 5.3-7.6c.8-1.2 1.6-2.5 2.3-3.9a55.2 55.2 0 0 1 3.4-6.2l.6-1.5c3-6.6 6.5-13 10.2-19.2.6-1 .8-2 .5-3.1l-1.4-1a1.1 1.1 0 0 0-1.6.5l-.5 1Z" fill="#fff" fill-opacity=".7"/><path d="M295.3 297.3a461.7 461.7 0 0 1-10.3 12.4l-5.5 7c-4 5.7-7.8 11.9-11.3 18.4-.9 1.8-1.4 3.7-2.4 5.4l-.4.4c-.4.3-.7.6-.9 1a91 91 0 0 0-1.5 1.3c-.3.2-.7.6-1 1.2a7 7 0 0 1-1.8 2c-2.2 6.5-3.4 13-3.8 19.7-.3 5.6 0 11.4.5 17.5.6-.2.9-.6.9-1.5l.2-2.3a9 9 0 0 1 .8-2.3 25 25 0 0 0 1.8-6.4 147 147 0 0 1 4.8-17.4c.7-1.6 1.1-3.3 1.9-4.8.5-1 1-1.8 1.3-2.8.4-1.3.9-2.5 1.2-3.8 1.4-5 4.7-9.3 7.3-13.7 2-3.4 4.3-6.8 7-10.1 2.7-3.5 5.1-7.4 8.1-10.6 2.2-2.3 4.2-5 6.2-7.7.3-.4.2-1-.2-1.4-1-.7-2-1.2-2.9-1.5Z" fill="#fdb5cc" fill-opacity=".6"/><path d="M305.4 303.4c-1 2-2.2 3.8-3.7 5.5-3.4 3.9-6.7 8-9.6 12.1-1 1.4-2.2 2.7-3.3 4a91.3 91.3 0 0 1-2.6 3 .4.4 0 0 1-.5-.5l.5-1.5c-.6.7-.7 1.7-1.3 2.2l-.4.5a134.1 134.1 0 0 0-11.2 37.4c-.6 3.3-1.6 6.6-2.4 9.9l-.3.2-.2.1v.4a4 4 0 0 1-1.3-.7l-1.3 13.7.1 1v.5c-.4.7-.2 1.3.3 1.8a.6.6 0 0 0 .9-.2l1.7-3 .2-.6c0-.3.1-.5.3-.8l.2-.4c0-1.4.4-2.6.8-3.9a809.2 809.2 0 0 0 2.6-7.3c.5-1.3 1-2.6 1.3-3.9.6-2 1.6-3.8 2.3-5.8l3.7-8.9c.7-1.7 1.5-3.4 2.5-5.2.8-1.5 1.3-3.1 2-4.7 1-2.8 2.2-5.5 3.4-8.3.9-2 2-3.8 3-5.7a467.9 467.9 0 0 1 9.7-18.1c1.2-2.5 2.7-4.9 3.8-7.4l1.6-3.3c.1-.2 0-.5-.1-.6l-2.7-1.5Z" fill="#fffaa5" fill-opacity=".5"/><path d="M329.3 316.9c-.2-.2-.8.2-1.1.5a144 144 0 0 0-14.5 18.5l-5.9 9.1c-2.7 4.4-4.7 9.1-7.3 13.7-2.8 4.9-4.7 9.8-7.1 14.6l-.5.8c-.3.2-.4.5-.5.8 0 .2 0 .4-.2.6-.2.2-.3.2-.3-.1-.1-.4-.3-.6-.5-.6l-2 5.5c0 .2-.2.3-.3.4-.2.1-.2.2-.2.4v.6c-.5 1.2-1.2 2.2-1.6 3.5a145.5 145.5 0 0 0-5.2 13.2c0 .2.3.4.5.4a30 30 0 0 0 9.9-3.6c3.5-2 6.6-4 9-6 3.6-2.7 7.4-5.6 10.3-9l6.1-7c2.5-2.5 4.4-4.8 6-6.8a152.9 152.9 0 0 0 15.2-23.2 96.5 96.5 0 0 0 7-15.2c0-.3 0-.6-.3-.7l-3.5-2.3c-.5-.3-.9-.2-1.1.3-1 1.8-2 3-3 4.8a6 6 0 0 1-1.3 1.8c-.4.4-.5.3-.5-.2s.2-1 .4-1.3c.8-2 1.9-4 3-6 .2-.2.1-.6-.1-.7-1.8-1.3-3.7-2.2-5.5-3.5-1.6-1-3.5-1.9-5-3.3Z" fill="url(#i)"/><path d="M355.6 333.5a4 4 0 0 1-.5 3.1 207.2 207.2 0 0 0-11.6 22.1l-2.6 4.8-2.3 4a930.1 930.1 0 0 1-8.3 12c-1.2 2-2.7 4-4.6 5.8l-.7.4c-.6.1-.9 0-1-.5a206.5 206.5 0 0 1-13.8 16.5 77 77 0 0 0 13.2-7.6c2.9-2 5.4-4.4 8.1-6.7a50 50 0 0 0 4.7-4.5 103.7 103.7 0 0 0 20.2-30.4l1.6-3.2a29.4 29.4 0 0 0 2.2-4.8l.2-.4.7-1.4a11 11 0 0 0 1.3-4.5c0-.5-.3-1-.6-1.3l-6.2-3.4Z" fill="#cfe2ff" fill-opacity=".8"/><path d="M361.8 336.9c.3.3.6.8.6 1.3a11 11 0 0 1-1.3 4.5 9 9 0 0 0-.7 1.4c0 .2 0 .3-.2.4l-.2.3c-.6 1.7-1.3 3.2-2 4.5l-1.6 3.2a119.4 119.4 0 0 1-20.2 30.4 50 50 0 0 1-4.7 4.5c-2.7 2.3-5.2 4.7-8.1 6.7l-9.1 5.9c.7 0 14-5.2 20.1-10 4.4-3.5 9.5-8.2 16-16.7 2-2.4 12.9-18.6 16.4-25.3a166.3 166.3 0 0 0 2.8-6.2c.2-.2.3-.2.3.2 0 .5 0 1-.2 1.5-.7 2-1 4-2 6a43.1 43.1 0 0 0-1.6 3.8l-.5 1.3a464.6 464.6 0 0 1-5 10.2 67.7 67.7 0 0 1-5 8.4 96.6 96.6 0 0 0-3.8 5.7 76.5 76.5 0 0 1-6.6 9.2c-.7.8-.6 1 .3.4l3.4-2.6c4.3-3.5 7.8-7.1 10.5-10.6a101.5 101.5 0 0 0 16.8-29.5c.2-.7 0-1-.6-1.3a12 12 0 0 1-4.8-2.5c-.5-.5-1-.7-1.4-1.2a1 1 0 0 0-.5-.4c-1.9-.5-3.6-1.4-5-2.5a.5.5 0 0 0-.5-.1h-.2c-.4-.5-.8-.8-1.4-1Z" fill="#88b5ff" fill-opacity=".7"/></g><path d="M291.9 291.7s5.6-7.6 29.5-48.7c2.3-4 6.1-7 10.5-8.4 12.4-4 35.7-13.3 46.4-32.3 12-21.2 23.4-55.2 48.4-91.7 8.7-13 37.8-46.3 58.2-37 20.3 9.4 9 50.3-4.6 74.4-20 35.5-51.8 65.6-62.6 88.8a75.6 75.6 0 0 0-3.8 47.1c1 4.7.3 9.6-2.2 13.7a1890 1890 0 0 1-29 49.5l-90.8-55.4Zm162.9-186.8c3.5-4.4 10.7-10.5 17.2-6.5 6 3.8 3.6 12.3 1.5 17.8-2.6 6.8-10.7 17.5-20 12.5-8.9-4.8-3.5-17.8 1.3-23.8Z" fill="#371b01"/><clipPath id="j"><path d="M291.9 291.7s5.6-7.6 29.5-48.7c2.3-4 6.1-7 10.5-8.4 12.4-4 35.7-13.3 46.4-32.3 12-21.2 23.4-55.2 48.4-91.7 8.7-13 37.8-46.3 58.2-37 20.3 9.4 9 50.3-4.6 74.4-20 35.5-51.8 65.6-62.6 88.8a75.6 75.6 0 0 0-3.8 47.1c1 4.7.3 9.6-2.2 13.7a1890 1890 0 0 1-29 49.5l-90.8-55.4Zm162.9-186.8c3.5-4.4 10.7-10.5 17.2-6.5 6 3.8 3.6 12.3 1.5 17.8-2.6 6.8-10.7 17.5-20 12.5-8.9-4.8-3.5-17.8 1.3-23.8Z"/></clipPath><g clip-path="url(#j)"><path d="m439.7 39.8-125 205.1 99.8 60.9 125-205.2-99.8-60.8Z" fill="url(#k)"/><path d="m310.4 251-9.2 15.2 99.8 61 9.3-15.2-100-61Z" fill="url(#l)"/><path d="m294.4 270.4-9.2 15.2 99.9 60.9 9.2-15.2-99.9-60.9Z" fill="url(#m)"/></g><defs><linearGradient id="c" x1="0" y1="0" x2="1" y2="0" gradientUnits="userSpaceOnUse" gradientTransform="matrix(390.7 0 0 52 8.6 90)"><stop offset="0" stop-color="#efa5e3"/><stop offset="1" stop-color="#b38af3"/></linearGradient><linearGradient id="d" x1="0" y1="0" x2="1" y2="-.1" gradientUnits="userSpaceOnUse" gradientTransform="matrix(-276.7 -176 156 -312 385 352)"><stop offset="0" stop-color="#40449d"/><stop offset=".4" stop-color="#2185cb" stop-opacity=".7"/><stop offset="1" stop-color="#03ff85" stop-opacity=".6"/></linearGradient><linearGradient id="e" x1="0" y1="0" x2="1" y2="0" gradientUnits="userSpaceOnUse" gradientTransform="matrix(245.8 0 0 23.7 91.3 405)"><stop offset="0" stop-color="#b7bcff"/><stop offset=".4" stop-color="#20b0fc"/><stop offset="1" stop-color="#35ffa5"/></linearGradient><linearGradient id="f" x1="0" y1="0" x2="1" y2="0" gradientUnits="userSpaceOnUse" gradientTransform="matrix(245.8 0 0 23.7 90.3 404)"><stop offset="0" stop-color="#ff6033" stop-opacity="0"/><stop offset=".3" stop-color="#fc8d20"/><stop offset="1" stop-color="#ddff35"/></linearGradient><linearGradient id="g" x1="0" y1="0" x2="1" y2="0" gradientUnits="userSpaceOnUse" gradientTransform="matrix(80 64 -64 80 252 344)"><stop offset="0" stop-color="#f31fa1"/><stop offset=".3" stop-color="#f7e930"/><stop offset=".5" stop-color="#74fd65"/><stop offset=".6" stop-color="#48edff"/><stop offset="1" stop-color="#5913ff"/></linearGradient><linearGradient id="h" x1="0" y1="0" x2="1" y2="0" gradientUnits="userSpaceOnUse" gradientTransform="matrix(80 120 -120 80 264 280)"><stop offset="0" stop-color="#ff1313"/><stop offset=".3" stop-color="#ffee10"/><stop offset=".5" stop-color="#1cff03"/><stop offset=".7" stop-color="#48edff"/><stop offset="1" stop-color="#5632ff"/></linearGradient><linearGradient id="i" x1="0" y1="0" x2="1" y2="0" gradientUnits="userSpaceOnUse" gradientTransform="matrix(20 12 -12 20 308 344)"><stop offset="0" stop-color="#89ff70"/><stop offset="1" stop-color="#a6f0ff" stop-opacity=".4"/></linearGradient><linearGradient id="k" x1="0" y1="0" x2="1" y2="0" gradientUnits="userSpaceOnUse" gradientTransform="matrix(54.5 33.2 -16.7 27.3 357.9 210.6)"><stop offset="0" stop-color="#fbe99a"/><stop offset=".7" stop-color="#e48827"/><stop offset="1" stop-color="#a34f04"/></linearGradient><linearGradient id="l" x1="0" y1="0" x2="1" y2="0" gradientUnits="userSpaceOnUse" gradientTransform="matrix(72.6 44.3 -1.6 2.7 302.8 294.2)"><stop offset="0" stop-color="#fceee3"/><stop offset=".7" stop-color="#9c8c81"/><stop offset="1" stop-color="#665549"/></linearGradient><linearGradient id="m" x1="0" y1="0" x2="1" y2="0" gradientUnits="userSpaceOnUse" gradientTransform="matrix(72.6 44.3 -1.6 2.7 301.6 289.3)"><stop offset="0" stop-color="#fceee3"/><stop offset=".7" stop-color="#9c8c81"/><stop offset="1" stop-color="#665549"/></linearGradient><radialGradient id="a" cx="0" cy="0" r="1" gradientUnits="userSpaceOnUse" gradientTransform="matrix(188 0 0 184 204 256)"><stop offset="0" stop-color="#675f90"/><stop offset="1" stop-color="#363152"/></radialGradient></defs></svg>